<?xml version='1.0' encoding='utf-8'?>
<svg xmlns="http://www.w3.org/2000/svg" id="svg4063" viewBox="0 0 813.20519 793.71069" version="1.1" width="215.16054mm" height="210.00262mm"> <defs id="defs4065"> <linearGradient id="linearGradient4649" y2="850.28003" gradientUnits="userSpaceOnUse" x2="290" y1="648.06" x1="705.54999"> <stop id="stop4645" style="stop-color:#ff0000" offset="0"/> <stop id="stop4647" style="stop-color:#ff6565" offset="1"/> </linearGradient> <linearGradient id="linearGradient4657" y2="780.69" gradientUnits="userSpaceOnUse" x2="600.58002" y1="329.82999" x1="701.57001"> <stop id="stop4653" style="stop-color:#d400ca" offset="0"/> <stop id="stop4655" style="stop-color:#ff39f6" offset="1"/> </linearGradient> <linearGradient id="linearGradient4665" y2="494.47" gradientUnits="userSpaceOnUse" x2="739.71997" y1="134.44" x1="450.26999"> <stop id="stop4661" style="stop-color:#7b00e6" offset="0"/> <stop id="stop4663" style="stop-color:#ab4bff" offset="1"/> </linearGradient> <linearGradient id="linearGradient4673" y2="207.14" gradientUnits="userSpaceOnUse" x2="602.70001" y1="207.14" x1="140.83"> <stop id="stop4669" style="stop-color:#0068ff" offset="0"/> <stop id="stop4671" style="stop-color:#65a4ff" offset="1"/> </linearGradient> <linearGradient id="linearGradient4681" y2="135.10001" gradientUnits="userSpaceOnUse" x2="292.64999" y1="497.48999" x1="6.3027"> <stop id="stop4677" style="stop-color:#00bd3d" offset="0"/> <stop id="stop4679" style="stop-color:#23ff6a" offset="1"/> </linearGradient> <linearGradient id="linearGradient4689" y2="332.57001" gradientUnits="userSpaceOnUse" x2="43.082001" y1="782.5" x1="147.98"> <stop id="stop4685" style="stop-color:#ffff00" offset="0"/> <stop id="stop4687" style="stop-color:#ffff65" offset="1"/> </linearGradient> <linearGradient id="linearGradient4697" y2="650.84998" gradientUnits="userSpaceOnUse" x2="41.917999" y1="849.53003" x1="459.16"> <stop id="stop4693" style="stop-color:#ff8000" offset="0"/> <stop id="stop4695" style="stop-color:#ffb265" offset="1"/> </linearGradient> </defs> <g id="layer2" transform="translate(0.00270047,77.870795)"> <g id="g4780" transform="matrix(1.1087851,0,0,1.1087851,-6.9880466,-226.93786)" style="stroke-width:0.90188795"> <path id="path3045" style="fill:url(#linearGradient4657);fill-opacity:0.99607999;fill-rule:evenodd;stroke-width:0.90188795" d="M 600.58,780.69 372.97,493.02 701.57,329.83 Z"/> <path id="path3047" style="fill:url(#linearGradient4665);fill-rule:evenodd;stroke-width:0.90188795" d="m 739.72,494.47 -366.75,-1.4482 77.296,-358.58 z"/> <path id="path3049" style="fill:url(#linearGradient4673);fill-rule:evenodd;stroke-width:0.90188795" d="M 602.7,207.14 372.97,493.02 140.83,209.08 Z"/> <path id="path3051" style="fill:url(#linearGradient4681);fill-rule:evenodd;stroke-width:0.90188795" d="M 292.65,135.1 372.97,493.02 6.3,497.49 Z"/> <path id="path3053" style="fill:url(#linearGradient4689);fill-rule:evenodd;stroke-width:0.90188795" d="m 43.082,332.57 104.9,449.93 224.99,-289.48 z"/> <path id="path3055" style="fill:url(#linearGradient4697);fill-rule:evenodd;stroke-width:0.90188795" d="m 41.918,650.85 417.24,198.68 -86.19,-356.51 z"/> <path id="path3057" style="fill:url(#linearGradient4649);fill-opacity:0.99216003;fill-rule:evenodd;stroke-width:0.90188795" d="M 372.98,493.01 290,850.28 553.98,721.8 Z m 264.43,123.26 -16.34,72.89 84.48,-41.1 z"/> </g> </g> <g id="layer1" transform="translate(-6.2999995,-56.569205)" style="display:inline"> <g id="g4733" transform="matrix(1.1087851,0,0,1.1087851,-0.68534656,-92.497854)" style="stroke-width:0.90188795"> <path id="path4699" style="fill:#000000;fill-opacity:0.4;stroke-width:0.90188795" d="M 366.67,358.58 302.79,73.93 327.86,73.823 Z" transform="translate(6.3027,134.44)"/> <path id="path4701" style="fill:#000000;fill-opacity:0.4;stroke-width:0.90188795" d="M 372.97,493.02 110.64,365.39 126.2,345.73 Z"/> <path id="path4703" style="fill:#000000;fill-opacity:0.4;stroke-width:0.90188795" d="m 372.97,493.02 -263.3,125.61 -5.68,-24.42 z"/> <path id="path4705" style="fill:#000000;fill-opacity:0.4;stroke-width:0.90188795" d="M 372.97,493.02 306.98,777.19 284.35,766.4 Z"/> <path id="path4707" style="fill:#000000;fill-opacity:0.4;stroke-width:0.90188795" d="m 372.97,493.02 181,228.79 -22.54,10.965 z"/> <path id="path4709" style="fill:#000000;fill-opacity:0.4;stroke-width:0.90188795" d="m 372.97,493.02 291.73,1.0656 -5.4749,24.461 z"/> <path id="path4711" style="fill:#000000;fill-opacity:0.4;stroke-width:0.90188795" d="m 372.97,493.02 182.82,-227.34 15.702,19.538 z"/> <path id="path4719" style="fill:#000000;fill-opacity:0.4;stroke-width:0.90188795" d="m 621.09,689.15 22.538,-10.968 5.5088,-56.443 -11.722,-5.4679 z"/> <path id="path4721" style="fill:#000000;fill-opacity:0.4;stroke-width:0.90188795" d="m 681.05,421.5 5.4913,-24.456 -40.671,-39.522 -11.587,5.7487 z"/> <path id="path4723" style="fill:#000000;fill-opacity:0.4;stroke-width:0.90188795" d="m 508.87,207.43 -15.715,-19.527 -56.251,7.2094 -2.7178,12.646 z"/> <path id="path4725" style="fill:#000000;fill-opacity:0.4;stroke-width:0.90188795" d="m 234.19,208.82 -25.065,0.13259 -29.395,48.498 8.2005,10.003 z"/> <path id="path4727" style="fill:#000000;fill-opacity:0.4;stroke-width:0.90188795" d="m 64.253,424.3 -15.526,19.677 19.584,53.222 12.933,-0.17356 z"/> <path id="path4729" style="fill:#000000;fill-opacity:0.4;stroke-width:0.90188795" d="m 126.66,691.42 5.6924,24.41 53.813,17.898 7.933,-10.216 z"/> <path id="path4731" style="fill:#000000;fill-opacity:0.4;stroke-width:0.90188795" d="m 374.43,809.29 22.631,10.775 47.553,-30.9 -3.0377,-12.573 z"/> </g> </g> <metadata id="metadata50"> </metadata> </svg>